<?xml version="1.0" encoding="utf-8"?><!-- Uploaded to: SVG Repo, www.svgrepo.com, Generator: SVG Repo Mixer Tools -->
<svg version="1.1" id="Uploaded to svgrepo.com" xmlns="http://www.w3.org/2000/svg" xmlns:xlink="http://www.w3.org/1999/xlink" 
	 width="800px" height="800px" viewBox="0 0 32 32" xml:space="preserve">
<style type="text/css">
	.feather_een{fill:#0B1719;}
</style>
<path class="feather_een" d="M6,7c0,0.552-0.448,1-1,1S4,7.552,4,7c0-0.552,0.448-1,1-1S6,6.448,6,7z M26,12H6c-0.552,0-1,0.448-1,1
	v2c0,0.552,0.448,1,1,1h20c0.552,0,1-0.448,1-1v-2C27,12.448,26.552,12,26,12z M26,15H6v-2h20V15z M12,7c0,0.552-0.448,1-1,1
	s-1-0.448-1-1c0-0.552,0.448-1,1-1S12,6.448,12,7z M9,7c0,0.552-0.448,1-1,1S7,7.552,7,7c0-0.552,0.448-1,1-1S9,6.448,9,7z M27,4H5
	C3.343,4,2,5.343,2,7v18c0,1.657,1.343,3,3,3h22c1.657,0,3-1.343,3-3V7C30,5.343,28.657,4,27,4z M29,25c0,1.103-0.897,2-2,2H5
	c-1.103,0-2-0.897-2-2V10h26V25z M29,9H3V7c0-1.103,0.897-2,2-2h22c1.103,0,2,0.897,2,2V9z M5,18.5C5,18.224,5.224,18,5.5,18h14
	c0.276,0,0.5,0.224,0.5,0.5S19.776,19,19.5,19h-14C5.224,19,5,18.776,5,18.5z M5,22.5C5,22.224,5.224,22,5.5,22h16
	c0.276,0,0.5,0.224,0.5,0.5S21.776,23,21.5,23h-16C5.224,23,5,22.776,5,22.5z M5,20.5C5,20.224,5.224,20,5.5,20h11
	c0.276,0,0.5,0.224,0.5,0.5S16.776,21,16.5,21h-11C5.224,21,5,20.776,5,20.5z"/>
</svg>